<svg width="26" height="26" viewBox="0 0 26 26" fill="none" xmlns="http://www.w3.org/2000/svg">
<path d="M22.8363 9.81844C22.8363 4.40448 18.4316 0 13.0177 0C7.6037 0 3.19922 4.40448 3.19922 9.81844C3.19922 12.0649 4.77483 15.2512 7.8822 19.2891C8.81253 20.498 9.73631 21.5959 10.5085 22.4765V25.2262C10.5085 25.6535 10.8549 26 11.2824 26H14.7531C15.1806 26 15.527 25.6535 15.527 25.2262V22.4765C16.2992 21.5959 17.223 20.498 18.1533 19.2891C21.2607 15.2512 22.8363 12.0649 22.8363 9.81844ZM21.2887 9.81844C21.2887 11.9687 19.2878 15.2256 17.0968 18.1158H16.125C17.2986 14.5897 17.8932 11.8011 17.8932 9.81844C17.8932 7.29485 17.4422 4.90991 16.6229 3.10341C16.4668 2.75945 16.2998 2.44286 16.123 2.15324C19.1493 3.3835 21.2887 6.35559 21.2887 9.81844ZM13.9793 24.4524H12.0562V22.9571H13.9793V24.4524ZM14.409 21.4095H11.6329C11.1808 20.8929 10.6777 20.3032 10.1551 19.6637H10.9858C10.988 19.6637 10.9902 19.6638 10.9922 19.6638C10.9943 19.6638 15.8804 19.6637 15.8804 19.6637C15.375 20.2851 14.8773 20.8731 14.409 21.4095ZM13.0177 1.54764C13.7806 1.54764 14.5808 2.34764 15.2133 3.74254C15.9435 5.35266 16.3456 7.51047 16.3456 9.81844C16.3456 11.6971 15.7053 14.5597 14.4919 18.1158H11.5438C10.33 14.5593 9.6897 11.6977 9.6897 9.81844C9.6897 7.51047 10.092 5.35266 10.8222 3.74254C11.4547 2.34764 12.2549 1.54764 13.0177 1.54764ZM4.74686 9.81844C4.74686 6.35559 6.88622 3.3835 9.91246 2.15324C9.73572 2.44286 9.5685 2.75945 9.41258 3.10341C8.59334 4.90991 8.14226 7.29485 8.14226 9.81844C8.14226 11.8017 8.73676 14.5899 9.91028 18.1158H8.93373C6.19412 14.5159 4.74686 11.6499 4.74686 9.81844Z" fill="#3554D1"/>
</svg>
